<svg width="25" height="25" viewBox="0 0 25 25" fill="none" xmlns="http://www.w3.org/2000/svg">
<path d="M12.415 7.47763L11.5311 6.59372C10.7106 5.77325 9.59781 5.31232 8.4375 5.31232C7.27719 5.31232 6.16437 5.77325 5.34391 6.59372C4.52344 7.41419 4.0625 8.527 4.0625 9.68732C4.0625 10.8476 4.52344 11.9604 5.34391 12.7809L9.74416 17.1812C9.7505 17.1876 9.75687 17.194 9.76328 17.2004L11.973 19.4101C12.095 19.5321 12.255 19.5932 12.415 19.5932" stroke="#1A1A1E" stroke-linecap="round" stroke-linejoin="round"/>
<path d="M12.415 7.47757L13.2989 6.59372C14.1194 5.77325 15.2322 5.31232 16.3925 5.31232C17.5528 5.31232 18.6656 5.77325 19.4861 6.59372C20.3065 7.41419 20.7675 8.527 20.7675 9.68732C20.7675 10.8476 20.3065 11.9604 19.4861 12.7809L12.8569 19.41C12.7349 19.5321 12.575 19.5931 12.415 19.5931" stroke="#1A1A1E" stroke-linecap="round" stroke-linejoin="round"/>
</svg>
