<svg width="24" height="24" viewBox="0 0 24 24" fill="none" xmlns="http://www.w3.org/2000/svg">
<path fill-rule="evenodd" clip-rule="evenodd" d="M12 3.00098C9.5556 3.00098 9.2496 3.01118 8.2896 3.05498C7.3314 3.09878 6.6768 3.25118 6.1044 3.47378C5.5044 3.69938 4.9602 4.05338 4.5102 4.51178C4.05253 4.96126 3.69831 5.50507 3.4722 6.10538C3.2508 6.67778 3.0978 7.33298 3.054 8.29118C3.0108 9.25058 3 9.55598 3 12.001C3 14.446 3.0102 14.7514 3.054 15.7114C3.0978 16.6696 3.2502 17.3242 3.4728 17.8966C3.6984 18.4966 4.0524 19.0408 4.5108 19.4908C4.96029 19.9484 5.50411 20.3026 6.1044 20.5288C6.6768 20.7508 7.3314 20.9032 8.2896 20.947C9.2496 20.9908 9.5556 21.001 12 21.001C14.4444 21.001 14.7504 20.9908 15.7104 20.947C16.6686 20.9032 17.3232 20.7508 17.8956 20.5282C18.4956 20.3026 19.0398 19.9486 19.4898 19.4902C19.9475 19.0407 20.3017 18.4969 20.5278 17.8966C20.7498 17.3242 20.9022 16.6696 20.946 15.7114C20.9898 14.7514 21 14.4454 21 12.001C21 9.55658 20.9898 9.25058 20.946 8.29058C20.9022 7.33238 20.7498 6.67778 20.5272 6.10538C20.3012 5.50482 19.947 4.96077 19.4892 4.51118C19.0397 4.05351 18.4959 3.69929 17.8956 3.47318C17.3232 3.25178 16.668 3.09878 15.7098 3.05498C14.7504 3.01178 14.445 3.00098 12 3.00098ZM12 15.004C11.6057 15.004 11.2152 14.9263 10.8508 14.7754C10.4865 14.6245 10.1554 14.4033 9.87658 14.1245C9.59773 13.8456 9.37653 13.5145 9.22561 13.1502C9.0747 12.7859 8.99702 12.3954 8.99702 12.001C8.99702 11.6067 9.0747 11.2162 9.22561 10.8518C9.37653 10.4875 9.59773 10.1564 9.87658 9.87757C10.1554 9.59871 10.4865 9.37751 10.8508 9.2266C11.2152 9.07569 11.6057 8.99801 12 8.99801C12.7965 8.99801 13.5603 9.3144 14.1235 9.87757C14.6866 10.4407 15.003 11.2046 15.003 12.001C15.003 12.7975 14.6866 13.5613 14.1235 14.1245C13.5603 14.6876 12.7965 15.004 12 15.004ZM12 7.37501C10.7731 7.37501 9.59649 7.86239 8.72895 8.72993C7.8614 9.59748 7.37402 10.7741 7.37402 12.001C7.37402 13.2279 7.8614 14.4045 8.72895 15.2721C9.59649 16.1396 10.7731 16.627 12 16.627C13.2269 16.627 14.4036 16.1396 15.2711 15.2721C16.1386 14.4045 16.626 13.2279 16.626 12.001C16.626 10.7741 16.1386 9.59748 15.2711 8.72993C14.4036 7.86239 13.2269 7.37501 12 7.37501ZM17.9718 7.29101C17.9718 7.58102 17.8566 7.85916 17.6515 8.06423C17.4465 8.2693 17.1683 8.38451 16.8783 8.38451C16.5883 8.38451 16.3102 8.2693 16.1051 8.06423C15.9 7.85916 15.7848 7.58102 15.7848 7.29101C15.7848 7.001 15.9 6.72286 16.1051 6.51779C16.3102 6.31272 16.5883 6.19751 16.8783 6.19751C17.1683 6.19751 17.4465 6.31272 17.6515 6.51779C17.8566 6.72286 17.9718 7.001 17.9718 7.29101Z" fill="white"/>
</svg>
