<svg width="25" height="25" viewBox="0 0 25 25" fill="none" xmlns="http://www.w3.org/2000/svg">
<path d="M18.75 21.8751H6.25C5.55966 21.8751 5 21.3155 5 20.6251V20.2075C5 18.3911 6.12691 16.7652 7.82781 16.1277C10.8403 14.9987 14.1597 14.9987 17.1722 16.1277C18.8731 16.7652 20 18.3911 20 20.2075V20.6251C20 21.3155 19.4403 21.8751 18.75 21.8751Z" stroke="#1A1A1E" stroke-linecap="round" stroke-linejoin="round"/>
<path d="M10.5941 12.1461C11.7903 12.7605 13.2094 12.7605 14.4057 12.1461C15.519 11.5742 16.3166 10.5326 16.5785 9.30871L16.6484 8.98205C16.9162 7.73049 16.6301 6.42427 15.8638 5.39918L15.7515 5.24908C14.985 4.22387 13.7799 3.62018 12.4999 3.62018C11.2198 3.62018 10.0147 4.22387 9.24822 5.24908L9.136 5.39918C8.3696 6.42427 8.08356 7.73049 8.35135 8.98205L8.42125 9.30871C8.68313 10.5326 9.48078 11.5742 10.5941 12.1461Z" stroke="#1A1A1E" stroke-linecap="round" stroke-linejoin="round"/>
</svg>
