<svg width="24" height="24" viewBox="0 0 24 24" fill="none" xmlns="http://www.w3.org/2000/svg">
<path fill-rule="evenodd" clip-rule="evenodd" d="M19.792 5.41526C20.6521 5.64603 21.3325 6.32552 21.5635 7.18449C21.9872 8.7486 22 11.9922 22 11.9922C22 11.9922 22 15.2486 21.5764 16.7999C21.3453 17.6589 20.665 18.3383 19.8049 18.5691C18.2516 18.9922 12 18.9922 12 18.9922C12 18.9922 5.74839 18.9922 4.19512 18.5691C3.33504 18.3383 2.65469 17.6589 2.42362 16.7999C2 15.2358 2 11.9922 2 11.9922C2 11.9922 2 8.7486 2.41078 7.19732C2.64185 6.33834 3.32221 5.65886 4.18229 5.42809C5.73556 5.005 11.9872 4.99219 11.9872 4.99219C11.9872 4.99219 18.2388 4.99219 19.792 5.41526ZM15.1836 11.9922L9.99743 14.9922V8.99219L15.1836 11.9922Z" fill="white"/>
</svg>
